<svg xmlns="http://www.w3.org/2000/svg" viewBox="0 0 640 480">
  <path fill="#de2910" d="M0 0h640v480H0z"/>
  <path fill="#ffde00" d="m96 48 15.3 47.1H161l-40.1 29.1 15.3 47.1L96 142.2 55.9 171.3l15.3-47.1L31 95.1h49.7z"/>
  <path fill="#ffde00" d="m192 24 6.1 18.9H219l-16 11.6 6.1 18.9-16-11.6-16 11.6 6.1-18.9-16-11.6h20.8z"/>
  <path fill="#ffde00" d="m224 72 6.1 18.9H251l-16 11.6 6.1 18.9-16-11.6-16 11.6 6.1-18.9-16-11.6h20.8z"/>
  <path fill="#ffde00" d="m224 136 6.1 18.9H251l-16 11.6 6.1 18.9-16-11.6-16 11.6 6.1-18.9-16-11.6h20.8z"/>
  <path fill="#ffde00" d="m192 184 6.1 18.9H219l-16 11.6 6.1 18.9-16-11.6-16 11.6 6.1-18.9-16-11.6h20.8z"/>
</svg>
