<svg xmlns="http://www.w3.org/2000/svg" viewBox="0 0 640 480">
  <path fill="#fff" d="M0 0h640v480H0z"/>
  <path fill="#cc0001" d="M0 0h640v34.3H0zm0 68.6h640v34.3H0zm0 68.6h640v34.3H0zm0 68.5h640V240H0zm0 68.6h640v34.3H0zm0 68.6h640v34.3H0zm0 68.5h640v34.4H0z"/>
  <path fill="#010066" d="M0 0h320v240H0z"/>
  <circle cx="128" cy="120" r="64" fill="#fc0"/>
  <circle cx="152" cy="120" r="52" fill="#010066"/>
  <path fill="#fc0" d="m176 72 12 36h38l-30 22 12 36-32-23-32 23 12-36-30-22h38z"/>
</svg>
