<svg xmlns="http://www.w3.org/2000/svg" viewBox="0 0 14.4 18">
  <path fill="#51DF51" d="M0,10.897c.281.2.555.405.846.587 1.561,1.007 3.163,1.952 4.685,3.018a4.338,4.338 0 0 1 1.626,1.911 3.364,3.364 0 0 1 .265,1.337 8.351,8.351 0 0 1-4.291-.169A8.544,8.544 0 0 1 0,15.798v-4.901M8.618,1.94a4.289,4.289 0 0 1 .885.388 8.252,8.252 0 0 1 2.827,2.483 8.352,8.352 0 0 1 1.546,4.662 8.143,8.143 0 0 1-1.3,4.638 8.444,8.444 0 0 1-2.165,2.28 2.958,2.958 0 0 1-.38.248 6.09,6.09 0 0 0-.229-1.565 5.311,5.311 0 0 0-.691-1.52 8.721,8.721 0 0 0-1.19-1.393 5.483,5.483 0 0 0-.8-.6c-.63-.408-1.282-.782-1.942-1.139a15.333,15.333 0 0 1-3.7-2.187A4.059,4.059 0 0 1 .268,6.275 3.678,3.678 0 0 1 .152,4.899 3.2,3.2 0 0 1 .973,3.19a3.413,3.413 0 0 1 2.253-1.055 5.734,5.734 0 0 1 1.215.057A3.752,3.752 0 0 1 6.813,3.76a6.735,6.735 0 0 1 .745,2.383c.051.252.047.512.111.761.317,0 .633.009.949,0 .015-1.652 0-3.3.01-4.956"/>
</svg>
