<svg xmlns="http://www.w3.org/2000/svg" viewBox="0 0 500 500"><g transform="matrix(7.6066431,0,0,7.6066431,-1370.9077,-345.86778)"><path fill="#FFD800" d="m 245.15,88 -0.75,-0.37 a 5.17,5.17 0 0 1 -1.54,-1.89 c -0.22,-0.36 -0.44,-0.74 -0.68,-1.08 a 4.61,4.61 0 0 0 -0.83,-0.87 l -0.16,-0.14 a 28.21,28.21 0 0 1 -1.87,-7.6 7.5,7.5 0 0 0 -0.91,-2.67 v 0 a 57.24,57.24 0 0 0 -4.43,-5.73 c -0.11,-0.12 -0.23,-0.24 -0.34,-0.34 l -0.08,-0.08 -5.3,-4.41 -0.08,-0.06 a 8.45,8.45 0 0 0 -2.39,-1.28 6.8,6.8 0 0 0 -4.62,0.16 h -0.09 c -0.46,0.24 -0.89,0.52 -1.3,0.78 a 8.75,8.75 0 0 1 -1.84,1 h -0.11 a 14,14 0 0 1 -1.69,0.59 9.69,9.69 0 0 0 -3.85,1.9 l -0.72,0.67 c -0.28,0.27 -0.55,0.52 -0.66,0.6 h -0.23 a 7.18,7.18 0 0 0 -4.93,1.72 h -0.05 a 8.78,8.78 0 0 1 -2.71,1.9 6.44,6.44 0 0 1 -1.4,0.24 h -0.05 a 10.45,10.45 0 0 0 -1.94,0.3 11.63,11.63 0 0 0 -4.14,2.4 c -0.52,0.4 -0.86,0.66 -1,0.75 l -0.33,0.21 a 7.53,7.53 0 0 1 -3.74,1.41 h -0.07 a 2,2 0 0 1 -1.66,-1.23 2.46,2.46 0 0 1 0.73,-2.4 c 0.45,-0.45 1,-0.9 1.49,-1.33 a 14.65,14.65 0 0 0 2.41,-2.37 3.86,3.86 0 0 0 -0.23,-4.7 7.21,7.21 0 0 0 -3.58,-1.71 h -0.1 -0.22 -0.07 l -0.4,-0.07 -0.66,-0.13 a 5,5 0 0 1 -1.29,-0.72 11.15,11.15 0 0 0 -1,-0.65 l -1,-0.53 -0.61,0.94 a 3.8,3.8 0 0 0 -0.59,2.43 v 0.07 a 5.66,5.66 0 0 0 3.14,4.14 v 0 l 0.17,0.07 a 3.73,3.73 0 0 0 1.08,0.25 18.53,18.53 0 0 0 -2.5,2.44 6.2,6.2 0 0 0 -0.89,6.06 6.43,6.43 0 0 0 5.16,3.88 7.07,7.07 0 0 0 1,0.08 9,9 0 0 0 1.75,-0.19 v 0 a 16.75,16.75 0 0 0 0.13,1.77 11.78,11.78 0 0 0 0.69,2.08 c 0,0 0,0 0,0.05 a 6.43,6.43 0 0 1 -1.32,0.6 c -0.34,0 -0.72,0.06 -1,0.08 h -0.42 a 1.8,1.8 0 0 0 -1.07,0.51 4.88,4.88 0 0 0 -0.91,1.74 c -0.12,0.32 -0.25,0.65 -0.38,0.92 a 1.85,1.85 0 0 1 -0.41,0.43 3.06,3.06 0 0 0 -0.78,-0.84 v 0 0 a 1.73,1.73 0 0 0 -2,0 l -0.27,0.18 -0.07,0.05 a 12.55,12.55 0 0 0 -1.28,0.93 2,2 0 0 0 -0.62,1.06 1.67,1.67 0 0 0 -0.32,0.08 2.69,2.69 0 0 0 -1.6,2 7.74,7.74 0 0 1 -0.11,1 l -0.07,0.09 a 1.6,1.6 0 0 0 0,2.15 6,6 0 0 0 2.38,0.86 h 0.08 0.2 0.09 l 0.28,-0.11 h 0.38 a 6.91,6.91 0 0 1 0.71,0.13 7,7 0 0 0 1.44,0.2 3.15,3.15 0 0 0 1.53,-0.37 3.68,3.68 0 0 0 1.54,-1.62 c 0.09,-0.15 0.17,-0.3 0.26,-0.42 h 0.13 a 4,4 0 0 0 0.81,0.15 4.85,4.85 0 0 0 3.07,-1.13 c 0.23,-0.18 0.44,-0.38 0.64,-0.56 a 7.3,7.3 0 0 1 0.64,-0.55 2.29,2.29 0 0 1 0.82,-0.12 10.08,10.08 0 0 1 1.77,0.22 4.64,4.64 0 0 0 3.36,-0.38 c 0.51,-0.29 1,-0.55 1.43,-0.77 h 0.07 l 0.58,-0.31 a 5.91,5.91 0 0 0 2.11,-2.53 c 0.21,-0.43 0.54,-1.22 0.63,-1.44 h 0.33 a 12.06,12.06 0 0 0 1.85,-0.19 c 0.4,-0.06 0.77,-0.12 1.06,-0.14 h 0.39 c 0.58,0 1.41,0.07 2,0.14 0.59,0.07 0.88,0.11 1.57,0.14 h 0.3 c 0.22,0 0.47,0 0.74,0 a 3.93,3.93 0 0 0 1.75,-0.4 c 0.13,0.13 0.35,0.44 0.5,0.57 h -0.07 a 1.55,1.55 0 0 0 -1.15,0.49 3.51,3.51 0 0 0 -1.63,-0.14 15.82,15.82 0 0 0 -2,0.31 1.47,1.47 0 0 0 -1.12,0.84 1.71,1.71 0 0 0 0.08,1.54 c 0.36,0.65 0.71,1.23 1.08,1.85 l 0.16,0.27 a 1.62,1.62 0 0 0 1.47,0.76 h 0.36 v 0 l 0.07,0.12 a 4.75,4.75 0 0 0 1.19,1.54 3.48,3.48 0 0 0 2.26,0.8 3.86,3.86 0 0 0 1.08,-0.16 29,29 0 0 0 4.68,-1.8 h 0.38 0.3 a 3.14,3.14 0 0 0 2.24,-0.86 l 0.07,-0.07 0.05,-0.08 c 0.28,-0.4 0.53,-0.81 0.77,-1.22 a 0.83,0.83 0 0 0 0,0.15 v 0 a 2.44,2.44 0 0 0 2.36,1.53 h 0.05 a 9,9 0 0 0 2.73,-0.66 h 0.05 l 0.34,-0.12 h 0.08 a 4.77,4.77 0 0 1 2.54,-0.13 h 0.14 0.14 a 4.67,4.67 0 0 0 2.69,-1.19 6.76,6.76 0 0 0 5.09,2.14 h 0.23 0.33 0.09 a 1.47,1.47 0 0 0 1.17,-1.32 1.6,1.6 0 0 0 0,-0.38 2.25,2.25 0 0 0 0.36,-0.06 1.51,1.51 0 0 0 1.19,-1.24 1.48,1.48 0 0 0 -0.78,-1.6 z m -17.51,-3.36 -0.18,0.16 a 6.67,6.67 0 0 0 -1.09,1.18 c -0.24,-0.4 -0.4,-0.69 -0.53,-1 a 5.93,5.93 0 0 0 1.53,-0.44 h 0.28 a 0.09,0.09 0 0 1 0,0.1 z"/><path fill="#E2071F" d="m 182.98,91.18 h -0.06 a 1.57,1.57 0 0 0 -0.85,1 c -0.1,1.3 -0.13,1.44 -0.49,1.84 -0.1,0.11 -0.17,0.37 -0.05,0.48 a 8,8 0 0 0 1.52,0.51 v 0 c 0.12,0 0.21,-0.33 0.47,-1.23 0.14,-0.48 0.3,-1 0.47,-1.53 0,0 0,-0.08 -0.1,-0.25 -0.1,-0.17 -0.63,-0.82 -0.91,-0.82 z m 1.42,0 a 0.74,0.74 0 0 0 0.48,0.19 0.89,0.89 0 0 0 0.4,-0.11 5,5 0 0 0 1.5,-1.79 c 0.08,-0.22 -0.17,-0.42 -0.49,-0.67 v 0 a 0.5,0.5 0 0 0 -0.56,0 l -0.35,0.24 a 11,11 0 0 0 -1.17,0.85 0.79,0.79 0 0 0 -0.24,0.54 0.47,0.47 0 0 0 0.07,0.33 3.93,3.93 0 0 0 0.36,0.4 z m 60.21,-2.07 -0.79,-0.39 a 6,6 0 0 1 -2,-2.33 c -0.2,-0.34 -0.42,-0.7 -0.65,-1 a 4.26,4.26 0 0 0 -0.63,-0.65 2,2 0 0 1 -0.42,-0.44 29.88,29.88 0 0 1 -2,-8.13 6.23,6.23 0 0 0 -0.75,-2.15 56.39,56.39 0 0 0 -4.28,-5.54 l -0.31,-0.31 -0.08,-0.08 -5.23,-4.34 a 7,7 0 0 0 -2.11,-1.13 5,5 0 0 0 -1.64,-0.27 5.44,5.44 0 0 0 -2.09,0.4 c -0.42,0.22 -0.82,0.48 -1.21,0.73 a 9.72,9.72 0 0 1 -2.11,1.12 16.39,16.39 0 0 1 -1.82,0.65 8.45,8.45 0 0 0 -3.38,1.64 l -0.71,0.66 c -0.9,0.85 -1,0.93 -1.73,0.93 a 6,6 0 0 0 -4.16,1.44 9.65,9.65 0 0 1 -3.13,2.15 7.26,7.26 0 0 1 -1.69,0.3 9.19,9.19 0 0 0 -1.83,0.28 10.91,10.91 0 0 0 -3.67,2.17 c -0.36,0.28 -0.85,0.66 -1.08,0.81 l -0.38,0.24 a 8.48,8.48 0 0 1 -4.36,1.57 h -0.12 a 3.19,3.19 0 0 1 -2.76,-2.09 3.66,3.66 0 0 1 1,-3.61 c 0.48,-0.48 1,-0.95 1.56,-1.4 a 13.91,13.91 0 0 0 2.22,-2.17 2.66,2.66 0 0 0 -0.15,-3.15 6.58,6.58 0 0 0 -3,-1.35 h -0.11 -0.23 c -0.39,-0.08 -0.76,-0.13 -1.14,-0.22 a 13.47,13.47 0 0 1 -2.58,-1.48 2.65,2.65 0 0 0 -0.4,1.68 4.43,4.43 0 0 0 2.44,3.19 l 0.15,0.06 a 2.93,2.93 0 0 0 1.15,0.19 h 0.52 a 3.34,3.34 0 0 1 0.76,0.06 0.73,0.73 0 0 1 0.51,0.58 c 0,0.17 -0.06,0.31 -0.28,0.48 l -0.61,0.51 a 20.63,20.63 0 0 0 -3,2.8 5,5 0 0 0 -0.67,4.85 5.19,5.19 0 0 0 4.19,3.1 6.11,6.11 0 0 0 0.86,0.07 10.88,10.88 0 0 0 2.69,-0.44 h 0.08 c 0,0 0.11,0 0.13,0.2 0,0.38 0.05,0.82 0.06,1.24 0,0.69 0.06,1.33 0.11,1.61 a 11,11 0 0 0 0.62,1.84 c 0.09,0.21 0.15,0.37 0.18,0.45 a 0.74,0.74 0 0 1 -0.18,0.75 6.08,6.08 0 0 1 -2.23,1.11 c -0.39,0.05 -0.81,0.07 -1.12,0.09 h -0.34 a 0.61,0.61 0 0 0 -0.37,0.17 5,5 0 0 0 -0.63,1.31 c -0.14,0.37 -0.29,0.74 -0.44,1.06 a 4.7,4.7 0 0 1 -1.79,1.49 l -0.5,0.3 v 0 a 5.47,5.47 0 0 1 -0.92,1.18 1.64,1.64 0 0 1 -1,0.36 v 0 0 a 4.61,4.61 0 0 0 -0.86,2.19 c 0,0.12 -0.05,0.24 -0.08,0.36 v 0.11 h 0.07 c 0.28,0 0.56,0.09 0.85,0.15 a 6,6 0 0 0 1.18,0.17 2,2 0 0 0 1,-0.24 2.49,2.49 0 0 0 1,-1.14 4.1,4.1 0 0 1 0.59,-0.84 0.66,0.66 0 0 1 0.54,-0.23 2.79,2.79 0 0 1 0.62,0.11 3,3 0 0 0 0.58,0.11 3.66,3.66 0 0 0 2.25,-0.87 c 0.19,-0.15 0.38,-0.33 0.56,-0.5 a 6,6 0 0 1 0.88,-0.73 3.24,3.24 0 0 1 1.4,-0.27 11.61,11.61 0 0 1 2,0.25 4,4 0 0 0 1,0.13 3.18,3.18 0 0 0 1.53,-0.37 l 1.46,-0.79 0.63,-0.34 a 5,5 0 0 0 1.61,-2 c 0.22,-0.44 0.6,-1.38 0.6,-1.39 v 0 l -0.87,-0.66 v 0.06 a 14.3,14.3 0 0 1 -0.94,1.38 c -1.53,2.09 -4,2.35 -6,2.35 h -0.41 a 7.56,7.56 0 0 0 -5.94,2.48 0.16,0.16 0 0 1 -0.24,0 0.21,0.21 0 0 1 0,-0.18 1.33,1.33 0 0 1 0.16,-0.41 c 1.55,-2.2 4.2,-2.53 6.34,-2.57 a 9.38,9.38 0 0 0 3.73,-0.89 5.81,5.81 0 0 0 2.6,-3.24 15.41,15.41 0 0 0 0.48,-2.32 17.92,17.92 0 0 1 0.34,-1.83 0.2,0.2 0 0 1 0.18,-0.13 h 0.05 c 0.08,0 0.23,0.07 0.24,0.19 a 8,8 0 0 0 0,4.26 1.63,1.63 0 0 0 1.68,0.81 10.66,10.66 0 0 0 1.66,-0.18 c 0.43,-0.07 0.84,-0.13 1.19,-0.15 h 0.45 a 10.24,10.24 0 0 1 2,0.27 12.5,12.5 0 0 0 1.75,0.26 h 0.34 c 0.21,0 0.42,0 0.64,0 A 1.73,1.73 0 0 0 215,85.32 c 0.18,-0.15 0.12,-0.37 0,-0.66 v -0.05 a 1.42,1.42 0 0 0 -0.05,-0.16 c -0.12,-0.38 -0.29,-0.94 0,-1.2 a 0.28,0.28 0 0 1 0.16,-0.05 0.14,0.14 0 0 1 0.14,0.09 c 0,0.11 0.06,0.22 0.1,0.33 a 4.11,4.11 0 0 0 0.55,1.32 8.35,8.35 0 0 0 2.72,2.13 3.66,3.66 0 0 1 1.74,2.61 c 0,0.55 -0.54,0.94 -0.93,1.18 a 5.69,5.69 0 0 1 -2.21,0.66 1.42,1.42 0 0 1 -0.76,-0.3 c -0.61,-0.56 -0.54,-0.76 -0.94,-1.42 a 7.75,7.75 0 0 0 -0.71,-1.05 1.7,1.7 0 0 0 -1.51,-0.53 15.31,15.31 0 0 0 -1.88,0.31 0.42,0.42 0 0 0 -0.31,0.24 0.49,0.49 0 0 0 0,0.45 c 0.35,0.63 0.7,1.21 1.06,1.82 l 0.16,0.27 a 0.46,0.46 0 0 0 0.43,0.17 h 0.58 a 0.74,0.74 0 0 1 0.65,0.24 c 0.11,0.17 0.21,0.35 0.3,0.52 a 3.57,3.57 0 0 0 0.9,1.19 2.28,2.28 0 0 0 1.48,0.52 2.46,2.46 0 0 0 0.72,-0.11 26.87,26.87 0 0 0 4.75,-1.85 h 0.5 0.33 a 2.09,2.09 0 0 0 1.45,-0.48 17,17 0 0 0 1.27,-2.17 1.87,1.87 0 0 0 0,-1.85 12.63,12.63 0 0 1 -1.53,-3 v 0 0 l -0.34,-0.12 a 2.13,2.13 0 0 0 -0.77,-0.19 v 0 c -0.33,0 -0.56,0.11 -0.65,0.3 v 0 l 1.75,3.46 a 1.57,1.57 0 0 1 0.17,0.95 6.11,6.11 0 0 1 -1.19,1.93 0.29,0.29 0 0 1 -0.15,0.06 c 0,0 -0.11,0 -0.05,-0.22 a 9,9 0 0 0 0.31,-2.31 22,22 0 0 0 -1.59,-3 v 0 a 2.13,2.13 0 0 1 -0.44,-1.2 0.47,0.47 0 0 1 0.33,-0.4 5.28,5.28 0 0 1 0.76,-0.19 c 0.62,-0.14 1.27,-0.28 1.5,-0.63 a 9.5,9.5 0 0 0 1.4,-3.72 c 0,-0.07 0.06,-0.2 0.16,-0.2 0.1,0 0.11,0 0.14,0.15 a 5.6,5.6 0 0 1 -1,4.21 0.44,0.44 0 0 0 -0.06,0.33 0.42,0.42 0 0 0 0.16,0.22 3.37,3.37 0 0 0 2.46,-0.37 10.11,10.11 0 0 0 1.94,-0.22 l 0.59,-0.11 a 0.29,0.29 0 0 1 0.12,0.13 4.32,4.32 0 0 0 -1,2.08 c -0.14,0.15 -0.31,0.3 -0.46,0.44 a 3,3 0 0 0 -1.22,1.86 0.27,0.27 0 0 0 0.27,0.29 0.67,0.67 0 0 0 0.29,-0.08 0.79,0.79 0 0 1 0.3,-0.08 0.21,0.21 0 0 1 0.17,0.18 l -0.65,1 a 1.51,1.51 0 0 0 0,1.23 c 0.07,0.23 0,0.4 0.1,0.6 a 1.25,1.25 0 0 0 1.21,0.7 8.08,8.08 0 0 0 2.37,-0.59 l 0.4,-0.14 a 5.84,5.84 0 0 1 3.22,-0.21 4.53,4.53 0 0 0 2.6,-1.43 1.53,1.53 0 0 1 1,0.57 5.49,5.49 0 0 0 4.25,1.81 h 0.36 c 0.18,0 0.23,-0.13 0.24,-0.24 0.01,-0.11 -0.09,-0.27 -0.29,-0.36 l -1,-0.51 a 4.05,4.05 0 0 1 -1.85,-1.86 10.4,10.4 0 0 0 -1.06,-2.24 c -0.07,-0.11 -0.14,-0.22 -0.22,-0.33 a 4.39,4.39 0 0 1 -0.38,-0.61 v 0 a 4.52,4.52 0 0 1 2.35,2.45 4.12,4.12 0 0 0 3.21,2 2.73,2.73 0 0 0 0.5,-0.05 0.3,0.3 0 0 0 0.25,-0.24 0.24627221,0.24627221 0 0 0 -0.05,-0.49 z M 225.82,73.48 c 0,0.1 -0.09,0.17 -0.16,0.17 -0.07,0 -0.1,0 -0.13,-0.15 a 10.41,10.41 0 0 0 -0.76,-2.73 3.24,3.24 0 0 0 -0.34,-0.53 c -0.23,-0.32 -0.44,-0.6 -0.21,-1 a 0.49,0.49 0 0 1 0.42,-0.18 0.7,0.7 0 0 1 0.25,0.05 2.06,2.06 0 0 1 0.8,1 5.51,5.51 0 0 1 0.13,3.37 z m 8.77,14 a 1,1 0 0 1 -0.23,0.56 2.42,2.42 0 0 1 -1.2,0.25 c -0.35,0 -0.47,-0.06 -0.54,-0.17 -0.07,-0.11 0.05,-0.36 0.05,-0.36 a 2.19,2.19 0 0 1 1.28,-1.16 0.7,0.7 0 0 1 0.52,0 c 0.26,0.12 0.15,0.75 0.12,0.88 z m 2.4,-5.49 a 1.74,1.74 0 0 1 -0.17,0.56 0.38,0.38 0 0 1 -0.36,0.25 c -0.26,0 -0.24,-0.31 -0.25,-0.35 a 4.42,4.42 0 0 0 -0.2,-1.22 c -0.18,-0.39 -1,-1.5 -1.54,-1.46 a 1.39,1.39 0 0 0 -0.69,0.52 c -0.29,0.38 -0.29,0.43 -0.38,0.48 -0.09,0.05 -0.21,0 -0.25,-0.2 a 1.71,1.71 0 0 1 0,-0.84 3.65,3.65 0 0 1 0.34,-0.83 c 0,0 0.26,-0.6 0.36,-0.75 a 0.74,0.74 0 0 1 0.63,-0.38 0.88,0.88 0 0 1 0.74,0.38 2.92,2.92 0 0 1 0.41,0.61 4,4 0 0 0 0.54,0.69 3.71,3.71 0 0 1 0.76,1.44 3,3 0 0 1 0.06,1.07 z m -20.68,7 a 5.35,5.35 0 0 1 0.39,0.76 c 0.2,0.44 0.37,0.81 0.57,0.88 a 0.82,0.82 0 0 0 0.28,0 2.84,2.84 0 0 0 1.54,-0.6 c 0.26,-0.22 0.17,-0.36 0.06,-0.55 a 1.45,1.45 0 0 1 -0.12,-0.22 4.66,4.66 0 0 1 -0.26,-0.7 c -0.13,-0.44 -0.23,-0.81 -0.7,-0.75 a 13.66,13.66 0 0 1 -2.05,0.14 c 0,0 -0.24,0 -0.31,0.16 -0.07,0.16 0.1,0.35 0.3,0.53 a 1.77,1.77 0 0 1 0.31,0.32 z"/></g></svg>