<svg xmlns="http://www.w3.org/2000/svg" viewBox="0 0 500 500">
  <path fill="#E6002D" d="M279.313 422.144A168.577 168.577 0 0 1 160.456 373.16h47.808s137.281-244.481 137.759-245.584c.478-1.103.331-1.655-.625-1.655h-56.045c-1.14 0-1.287.331-1.618.809-.331.478-77.228 136.068-77.228 136.068H109.633q-.478-6.472-.478-12.945c0-94.953 76.088-172.107 170.158-172.107a168.503 168.503 0 0 1 122.24 52.588c-13.423 22.911-73.55 126.396-81.751 141.474-4.707-11.033-26.404-8.826-37.584-9.01-4.854 8.201-27.691 51.742-27.691 51.742h23.94c11.327 0 12.32 11.768 7.944 19.16-4.376 7.392-22.36 39.276-22.36 39.276h57.774l111.244-196.442a171.335 171.335 0 0 1 16.402 73.513c0 94.99-76.235 172.07-170.158 172.07M121.622 314.687h58.84l-28.354 49.61a178.359 178.359 0 0 1-30.413-49.61M279.387 26.812C157.477 26.812 58.736 126.73 58.736 250c0 4.413 0 8.642.295 12.945H30.199a3.383 3.383 0 0 0-3.089 2.133C26.632 266.218 1.037 311.745.374 312.885c-.662 1.14-.478 1.802.809 1.802h66.894a221.018 221.018 0 0 0 211.273 158.501C401.296 473.188 500 373.27 500 250 500 126.73 401.259 26.812 279.35 26.812"/>
</svg>
